<?xml version="1.0" encoding="utf-8"?>
<!-- Generator: Adobe Illustrator 18.1.1, SVG Export Plug-In . SVG Version: 6.00 Build 0)  -->
<svg version="1.1" id="Layer_1" xmlns="http://www.w3.org/2000/svg" xmlns:xlink="http://www.w3.org/1999/xlink" x="0px" y="0px"
	 viewBox="0 0 200 61.804" enable-background="new 0 0 200 61.804" xml:space="preserve">
<g>
	<g>
		
			<radialGradient id="SVGID_1_" cx="252.8538" cy="275.2979" r="8.2108" gradientTransform="matrix(1.3354 0 0 2.677 -306.845 -706.1445)" gradientUnits="userSpaceOnUse">
			<stop  offset="0.0506" style="stop-color:#F2705C"/>
			<stop  offset="0.3206" style="stop-color:#F2735A"/>
			<stop  offset="0.532" style="stop-color:#F47D55"/>
			<stop  offset="0.7234" style="stop-color:#F68E4D"/>
			<stop  offset="0.9021" style="stop-color:#F9A540"/>
			<stop  offset="1" style="stop-color:#FBB538"/>
		</radialGradient>
		<rect x="29.22" y="0" fill="url(#SVGID_1_)" width="3.363" height="61.804"/>
		
			<radialGradient id="SVGID_2_" cx="250.9966" cy="257.99" r="8.2116" gradientTransform="matrix(1.29 0.3456 -0.6928 2.5857 -113.8693 -723.2615)" gradientUnits="userSpaceOnUse">
			<stop  offset="0.0506" style="stop-color:#F2705C"/>
			<stop  offset="0.3206" style="stop-color:#F2735A"/>
			<stop  offset="0.532" style="stop-color:#F47D55"/>
			<stop  offset="0.7234" style="stop-color:#F68E4D"/>
			<stop  offset="0.9021" style="stop-color:#F9A540"/>
			<stop  offset="1" style="stop-color:#FBB538"/>
		</radialGradient>
		<polygon fill="url(#SVGID_2_)" points="24.528,61.186 21.279,60.317 37.275,0.617 40.524,1.489 		"/>
		
			<radialGradient id="SVGID_3_" cx="242.1011" cy="240.6202" r="8.2216" gradientTransform="matrix(1.1563 0.6675 -1.3385 2.3185 72.6143 -688.8187)" gradientUnits="userSpaceOnUse">
			<stop  offset="0.0506" style="stop-color:#F2705C"/>
			<stop  offset="0.3206" style="stop-color:#F2735A"/>
			<stop  offset="0.532" style="stop-color:#F47D55"/>
			<stop  offset="0.7234" style="stop-color:#F68E4D"/>
			<stop  offset="0.9021" style="stop-color:#F9A540"/>
			<stop  offset="1" style="stop-color:#FBB538"/>
		</radialGradient>
		<polygon fill="url(#SVGID_3_)" points="16.908,58.505 13.995,56.823 44.896,3.299 47.809,4.981 		"/>
		
			<radialGradient id="SVGID_4_" cx="221.5769" cy="225.8653" r="8.2113" gradientTransform="matrix(0.9444 0.9444 -1.8929 1.8929 249.5052 -605.794)" gradientUnits="userSpaceOnUse">
			<stop  offset="0.0506" style="stop-color:#F2705C"/>
			<stop  offset="0.3206" style="stop-color:#F2735A"/>
			<stop  offset="0.532" style="stop-color:#F47D55"/>
			<stop  offset="0.7234" style="stop-color:#F68E4D"/>
			<stop  offset="0.9021" style="stop-color:#F9A540"/>
			<stop  offset="1" style="stop-color:#FBB538"/>
		</radialGradient>
		<polygon fill="url(#SVGID_4_)" points="10.24,53.942 7.862,51.564 51.564,7.863 53.942,10.24 		"/>
		
			<radialGradient id="SVGID_5_" cx="198.0903" cy="213.2643" r="8.2102" gradientTransform="matrix(0.6675 1.1563 -2.3185 1.3385 392.4069 -484.1151)" gradientUnits="userSpaceOnUse">
			<stop  offset="0.0506" style="stop-color:#F2705C"/>
			<stop  offset="0.3206" style="stop-color:#F2735A"/>
			<stop  offset="0.532" style="stop-color:#F47D55"/>
			<stop  offset="0.7234" style="stop-color:#F68E4D"/>
			<stop  offset="0.9021" style="stop-color:#F9A540"/>
			<stop  offset="1" style="stop-color:#FBB538"/>
		</radialGradient>
		<polygon fill="url(#SVGID_5_)" points="4.981,47.809 3.3,44.897 56.823,13.994 58.505,16.908 		"/>
		
			<radialGradient id="SVGID_6_" cx="164.9745" cy="205.566" r="8.2112" gradientTransform="matrix(0.3456 1.29 -2.5857 0.6928 505.5944 -324.3452)" gradientUnits="userSpaceOnUse">
			<stop  offset="0.0506" style="stop-color:#F2705C"/>
			<stop  offset="0.3206" style="stop-color:#F2735A"/>
			<stop  offset="0.532" style="stop-color:#F47D55"/>
			<stop  offset="0.7234" style="stop-color:#F68E4D"/>
			<stop  offset="0.9021" style="stop-color:#F9A540"/>
			<stop  offset="1" style="stop-color:#FBB538"/>
		</radialGradient>
		<polygon fill="url(#SVGID_6_)" points="1.489,40.524 0.618,37.275 60.316,21.279 61.187,24.528 		"/>
		
			<radialGradient id="SVGID_7_" cx="130.7295" cy="201.5015" r="8.2109" gradientTransform="matrix(0 1.3354 -2.677 0 570.3962 -143.7604)" gradientUnits="userSpaceOnUse">
			<stop  offset="0.0506" style="stop-color:#F2705C"/>
			<stop  offset="0.3206" style="stop-color:#F2735A"/>
			<stop  offset="0.532" style="stop-color:#F47D55"/>
			<stop  offset="0.7234" style="stop-color:#F68E4D"/>
			<stop  offset="0.9021" style="stop-color:#F9A540"/>
			<stop  offset="1" style="stop-color:#FBB538"/>
		</radialGradient>
		<rect x="0" y="29.221" fill="url(#SVGID_7_)" width="61.805" height="3.363"/>
		
			<radialGradient id="SVGID_8_" cx="94.7604" cy="202.4767" r="8.2099" gradientTransform="matrix(-0.3456 1.29 -2.5857 -0.6928 587.5248 49.2144)" gradientUnits="userSpaceOnUse">
			<stop  offset="0.0506" style="stop-color:#F2705C"/>
			<stop  offset="0.3206" style="stop-color:#F2735A"/>
			<stop  offset="0.532" style="stop-color:#F47D55"/>
			<stop  offset="0.7234" style="stop-color:#F68E4D"/>
			<stop  offset="0.9021" style="stop-color:#F9A540"/>
			<stop  offset="1" style="stop-color:#FBB538"/>
		</radialGradient>
		<polygon fill="url(#SVGID_8_)" points="0.618,24.528 1.489,21.279 61.188,37.275 60.316,40.523 		"/>
		
			<radialGradient id="SVGID_9_" cx="62.3387" cy="207.1668" r="8.2224" gradientTransform="matrix(-0.6675 1.1563 -2.3185 -1.3385 553.0703 235.697)" gradientUnits="userSpaceOnUse">
			<stop  offset="0.0506" style="stop-color:#F2705C"/>
			<stop  offset="0.3206" style="stop-color:#F2735A"/>
			<stop  offset="0.532" style="stop-color:#F47D55"/>
			<stop  offset="0.7234" style="stop-color:#F68E4D"/>
			<stop  offset="0.9021" style="stop-color:#F9A540"/>
			<stop  offset="1" style="stop-color:#FBB538"/>
		</radialGradient>
		<polygon fill="url(#SVGID_9_)" points="3.3,16.908 4.982,13.994 58.506,44.897 56.825,47.809 		"/>
		
			<radialGradient id="SVGID_10_" cx="30.6443" cy="216.7633" r="8.2106" gradientTransform="matrix(-0.9444 0.9444 -1.8929 -1.8929 470.0476 412.5898)" gradientUnits="userSpaceOnUse">
			<stop  offset="0.0506" style="stop-color:#F2705C"/>
			<stop  offset="0.3206" style="stop-color:#F2735A"/>
			<stop  offset="0.532" style="stop-color:#F47D55"/>
			<stop  offset="0.7234" style="stop-color:#F68E4D"/>
			<stop  offset="0.9021" style="stop-color:#F9A540"/>
			<stop  offset="1" style="stop-color:#FBB538"/>
		</radialGradient>
		<polygon fill="url(#SVGID_10_)" points="7.863,10.24 10.241,7.862 53.944,51.564 51.565,53.942 		"/>
		
			<radialGradient id="SVGID_11_" cx="8.8816" cy="229.1276" r="8.2118" gradientTransform="matrix(-1.1563 0.6675 -1.3385 -2.3185 348.3687 555.4846)" gradientUnits="userSpaceOnUse">
			<stop  offset="0.0506" style="stop-color:#F2705C"/>
			<stop  offset="0.3206" style="stop-color:#F2735A"/>
			<stop  offset="0.532" style="stop-color:#F47D55"/>
			<stop  offset="0.7234" style="stop-color:#F68E4D"/>
			<stop  offset="0.9021" style="stop-color:#F9A540"/>
			<stop  offset="1" style="stop-color:#FBB538"/>
		</radialGradient>
		<polygon fill="url(#SVGID_11_)" points="13.996,4.981 16.909,3.299 47.811,56.823 44.898,58.505 		"/>
		
			<radialGradient id="SVGID_12_" cx="-9.5045" cy="245.3167" r="8.2105" gradientTransform="matrix(-1.29 0.3456 -0.6928 -2.5857 188.6105 668.6721)" gradientUnits="userSpaceOnUse">
			<stop  offset="0.0506" style="stop-color:#F2705C"/>
			<stop  offset="0.3206" style="stop-color:#F2735A"/>
			<stop  offset="0.532" style="stop-color:#F47D55"/>
			<stop  offset="0.7234" style="stop-color:#F68E4D"/>
			<stop  offset="0.9021" style="stop-color:#F9A540"/>
			<stop  offset="1" style="stop-color:#FBB538"/>
		</radialGradient>
		<polygon fill="url(#SVGID_12_)" points="21.281,1.489 24.53,0.617 40.526,60.317 37.278,61.186 		"/>
		
			<radialGradient id="SVGID_13_" cx="370.7034" cy="319.1968" r="10.144" gradientTransform="matrix(1.3354 0 0 1.3354 -464.3313 -395.4195)" gradientUnits="userSpaceOnUse">
			<stop  offset="0" style="stop-color:#EC174E"/>
			<stop  offset="0.2649" style="stop-color:#EC194E"/>
			<stop  offset="0.4208" style="stop-color:#ED224E"/>
			<stop  offset="0.5485" style="stop-color:#EF304E"/>
			<stop  offset="0.661" style="stop-color:#F1444E"/>
			<stop  offset="0.7635" style="stop-color:#F35E4E"/>
			<stop  offset="0.8587" style="stop-color:#F67E4D"/>
			<stop  offset="0.9465" style="stop-color:#FAA34D"/>
			<stop  offset="1" style="stop-color:#FDBE4D"/>
		</radialGradient>
		<circle fill="url(#SVGID_13_)" cx="30.793" cy="30.924" r="13.547"/>
	</g>
</g>
<g>
	<line fill="#045C98" enable-background="new    " x1="74.022" y1="36.281" x2="199.993" y2="36.281"/>
	<rect x="74.022" y="36.06" fill="#045C98" width="125.971" height="0.444"/>
</g>
<g>
	<g>
		<path fill="#045C98" d="M74.007,32.362c1.635-0.024,1.952-0.293,2.636-2.196l4.417-12.104l-0.195-0.61h2.733l4.759,12.714
			c0.708,1.903,0.952,2.196,2.489,2.196v0.659h-7.248v-0.659c1.928,0,2.465-0.195,2.465-0.903c0-0.244-0.098-0.659-0.342-1.293
			l-1.171-3.026h-5.589l-1.196,3.246c-0.171,0.464-0.244,0.781-0.244,1.025c0,0.708,0.488,1.025,2.44,0.952v0.659h-5.955V32.362z
			 M84.085,25.919l-2.343-6.174l-2.318,6.174H84.085z"/>
		<path fill="#045C98" d="M94.085,20.648c0-1.782-0.464-2.172-2.318-2.147v-0.659c0.708,0,2.807-0.098,3.831-0.146
			c1.318-0.049,2.562-0.049,3.49-0.049c3.685,0,6.345,0.659,7.834,2.147c1.513,1.513,2.099,3.368,2.099,5.198
			c0,3.587-2.514,8.029-9.664,8.029h-7.59v-0.659c2.074,0,2.318-0.342,2.318-1.977V20.648z M96.794,30.581
			c0,1.537,0.22,1.757,1.806,1.757c2.928,0,4.441-0.634,5.564-1.757c1.489-1.489,1.903-3.539,1.903-5.247
			c0-1.757-0.39-3.734-1.879-5.222c-1.22-1.22-2.757-1.781-5.613-1.781c-0.415,0-1.171,0-1.781,0.049V30.581z"/>
		<path fill="#045C98" d="M110.341,33.021v-0.659c1.977,0,2.465-0.317,2.465-1.684V20.16c0-1.611-0.805-1.659-2.465-1.659v-0.659
			h12.47l0.22,3.661h-0.659l-0.122-0.512c-0.488-2.001-0.879-2.05-2.44-2.05h-4.295v5.686h3.783c1.415,0,1.684-0.171,1.83-1.855
			h0.659v4.905h-0.659c-0.171-1.733-0.488-1.952-1.83-1.952h-3.783v4.441c0,1.513,0.195,1.757,1.44,1.757h2.709
			c2.465,0,2.953-0.342,3.612-2.733h0.659l-0.366,3.831H110.341z"/>
		<path fill="#045C98" d="M126.75,29.019h0.732c0.61,2.245,2.123,3.514,4.222,3.514c1.782,0,3.026-1.049,3.026-2.514
			c0-3.417-7.687-4.759-7.687-9.005c0-2.099,1.855-3.563,4.466-3.563c0.805,0,1.391,0.098,1.879,0.195
			c0.488,0.098,0.879,0.195,1.294,0.195c0.317,0,0.488-0.073,0.683-0.293h0.61l0.537,3.783h-0.732
			c-0.732-1.928-2.245-3.099-3.978-3.099c-1.562,0-2.392,0.927-2.392,2.001c0,3.27,7.712,4.246,7.712,8.956
			c0,2.514-2.123,4.222-5.247,4.222c-1.83,0-2.587-0.439-3.27-0.439c-0.293,0-0.488,0.073-0.659,0.268h-0.586L126.75,29.019z"/>
		<path fill="#045C98" d="M139.777,29.019h0.732c0.61,2.245,2.123,3.514,4.222,3.514c1.782,0,3.026-1.049,3.026-2.514
			c0-3.417-7.687-4.759-7.687-9.005c0-2.099,1.855-3.563,4.466-3.563c0.805,0,1.391,0.098,1.879,0.195
			c0.488,0.098,0.879,0.195,1.293,0.195c0.317,0,0.488-0.073,0.684-0.293h0.61l0.537,3.783h-0.732
			c-0.732-1.928-2.245-3.099-3.978-3.099c-1.562,0-2.392,0.927-2.392,2.001c0,3.27,7.712,4.246,7.712,8.956
			c0,2.514-2.123,4.222-5.247,4.222c-1.83,0-2.587-0.439-3.27-0.439c-0.293,0-0.488,0.073-0.659,0.268h-0.586L139.777,29.019z"/>
		<path fill="#045C98" d="M151.931,17.842h6.809v0.659c-1.635,0-2.099,0.366-2.099,2.099v9.493c0,1.83,0.342,2.318,2.099,2.27v0.659
			h-6.809v-0.659c1.928,0.049,2.001-0.708,2.001-2.099v-9.932c0-1.318-0.317-1.855-2.001-1.83V17.842z"/>
		<path fill="#045C98" d="M159.611,17.842h6.931v0.659c-1.806,0-2.148,0.39-2.148,2.099v6.565c0,3.246,2.172,4.734,5.222,4.734
			c2.709,0,5.247-1.171,5.247-4.783v-6.516c0-1.903-0.366-2.099-2.343-2.099v-0.659h5.906v0.659c-1.855,0-2.221,0.39-2.221,2.099
			v6.784c0,3.831-2.953,6.028-7.394,6.028c-4.637,0-7.126-2.221-7.126-6.199v-6.857c0-1.489-0.39-1.855-2.074-1.855V17.842z"/>
		<path fill="#045C98" d="M178.256,32.362c1.513,0,1.952-0.268,2.099-2.392l0.586-8.981c0.147-2.172-0.122-2.489-1.537-2.489v-0.659
			h4.515l5.271,11.299l4.978-11.299h4.515v0.659c-1.366,0-1.659,0.293-1.562,1.415l0.879,11.104
			c0.098,1.245,0.561,1.342,2.001,1.342v0.659h-6.931v-0.659c2.001,0,2.343-0.488,2.147-3.075l-0.659-9.005h-0.049l-5.637,12.739
			h-0.83l-5.735-12.422h-0.049l-0.586,9.03c-0.171,2.611,0.391,2.611,2.001,2.733v0.659h-5.418V32.362z"/>
	</g>
</g>
<g>
	<path fill="#EB9022" d="M75.884,42.25v1.63c0.018,0.395,0.049,0.618,0.091,0.668c0.042,0.05,0.232,0.087,0.568,0.111l0.075,0.004
		v0.368h-2.605v-0.368l0.076-0.004c0.269-0.018,0.43-0.064,0.483-0.137c0.053-0.073,0.08-0.287,0.08-0.642v-3.612
		c0-0.355-0.026-0.568-0.078-0.64c-0.052-0.071-0.214-0.118-0.485-0.139l-0.076-0.004v-0.368h4.331v1.119h-0.591l-0.004-0.072
		c-0.008-0.126-0.012-0.214-0.012-0.265c0-0.163-0.034-0.268-0.103-0.313c-0.068-0.045-0.226-0.068-0.473-0.068h-1.279v2.381h0.831
		c0.321,0,0.505-0.008,0.552-0.023c0.047-0.016,0.071-0.076,0.071-0.181c0-0.015,0.003-0.077,0.008-0.185l0.008-0.075h0.416v1.279
		h-0.416l-0.008-0.071c-0.006-0.082-0.008-0.134-0.008-0.158c0-0.103-0.035-0.168-0.106-0.194c-0.071-0.026-0.243-0.04-0.517-0.04
		H75.884z"/>
	<path fill="#EB9022" d="M89.683,45.175c-0.929,0-1.661-0.277-2.196-0.832c-0.535-0.555-0.803-1.311-0.803-2.269
		c0-0.96,0.267-1.717,0.803-2.27c0.535-0.553,1.267-0.83,2.196-0.83c0.926,0,1.657,0.277,2.192,0.83
		c0.535,0.553,0.803,1.31,0.803,2.27c0,0.958-0.268,1.714-0.803,2.269C91.34,44.898,90.609,45.175,89.683,45.175z M89.681,44.775
		c0.569,0,0.994-0.226,1.278-0.679c0.283-0.452,0.424-1.131,0.424-2.036c0-0.897-0.141-1.569-0.424-2.016
		c-0.283-0.447-0.709-0.671-1.278-0.671c-0.566,0-0.991,0.224-1.276,0.671c-0.284,0.447-0.427,1.119-0.427,2.016
		c0,0.905,0.142,1.584,0.427,2.036C88.69,44.549,89.115,44.775,89.681,44.775z"/>
	<path fill="#EB9022" d="M100.642,39.118h2.509v0.368l-0.072,0.004c-0.273,0.021-0.436,0.068-0.488,0.139
		c-0.052,0.072-0.078,0.285-0.078,0.64v2.559c0,0.706,0.1,1.208,0.301,1.504c0.201,0.296,0.54,0.444,1.019,0.444
		c0.51,0,0.881-0.157,1.113-0.47c0.232-0.313,0.348-0.817,0.348-1.51v-2.527c0-0.355-0.026-0.568-0.078-0.64
		c-0.052-0.071-0.215-0.118-0.489-0.139l-0.072-0.004v-0.368h1.87v0.368l-0.073,0.004c-0.274,0.021-0.437,0.068-0.488,0.139
		c-0.051,0.072-0.077,0.285-0.077,0.64v2.431c0,0.849-0.179,1.473-0.537,1.873c-0.358,0.402-0.916,0.603-1.674,0.603
		c-1.595,0-2.392-0.799-2.392-2.396V40.3c0-0.368-0.026-0.59-0.08-0.667c-0.053-0.077-0.214-0.124-0.483-0.14l-0.076-0.008V39.118z"
		/>
	<path fill="#EB9022" d="M119.062,45.127l-3.261-4.499v3.253c0,0.355,0.026,0.569,0.08,0.642c0.053,0.073,0.216,0.119,0.487,0.137
		l0.072,0.004v0.368h-1.87v-0.368l0.076-0.004c0.269-0.018,0.43-0.064,0.483-0.137c0.053-0.073,0.08-0.287,0.08-0.642v-3.612
		c0-0.355-0.026-0.568-0.078-0.64c-0.052-0.071-0.214-0.118-0.485-0.139l-0.076-0.004v-0.368h1.488l3.242,4.474v-3.323
		c0-0.355-0.026-0.568-0.077-0.64c-0.052-0.071-0.214-0.118-0.486-0.139l-0.075-0.004v-0.368h1.87v0.368l-0.072,0.004
		c-0.271,0.021-0.433,0.068-0.486,0.139c-0.054,0.072-0.08,0.285-0.08,0.64v4.859H119.062z"/>
	<path fill="#EB9022" d="M128.792,45.031v-0.368l0.076-0.004c0.269-0.018,0.43-0.064,0.483-0.137c0.053-0.073,0.08-0.287,0.08-0.642
		v-3.612c0-0.355-0.026-0.568-0.078-0.64c-0.052-0.071-0.214-0.118-0.485-0.139l-0.076-0.004v-0.368h1.924h0.853l0.314-0.004
		c0.922,0,1.633,0.246,2.13,0.738c0.494,0.492,0.742,1.194,0.742,2.105c0,0.936-0.252,1.682-0.756,2.239
		c-0.503,0.557-1.179,0.835-2.025,0.835H128.792z M130.662,39.517v4.36c0,0.325,0.049,0.529,0.148,0.613
		c0.099,0.084,0.339,0.126,0.72,0.126c0.644,0,1.127-0.222,1.448-0.665c0.321-0.443,0.481-1.108,0.481-1.994
		c0-0.884-0.178-1.511-0.534-1.882c-0.357-0.371-0.96-0.557-1.812-0.557H130.662z"/>
	<path fill="#EB9022" d="M144.041,43.225l-0.296,0.646c-0.145,0.315-0.217,0.53-0.217,0.645c0,0.088,0.084,0.132,0.252,0.132
		c0.024,0.003,0.074,0.007,0.152,0.012l0.076,0.004v0.368h-1.587v-0.368l0.076-0.004c0.213-0.013,0.347-0.048,0.402-0.104
		c0.054-0.056,0.174-0.285,0.358-0.687l2.201-4.799h0.432l2.21,4.803c0.194,0.399,0.319,0.625,0.374,0.679
		c0.054,0.053,0.194,0.09,0.418,0.108l0.052,0.004v0.368h-2.472v-0.368l0.076-0.004c0.336-0.021,0.506-0.073,0.511-0.156
		c0.006-0.08-0.07-0.292-0.228-0.637l-0.3-0.641H144.041z M144.224,42.825h2.119l-1.069-2.288L144.224,42.825z"/>
	<path fill="#EB9022" d="M158.117,39.511h-0.959c-0.248,0-0.407,0.034-0.477,0.103c-0.07,0.069-0.107,0.279-0.11,0.631l-0.004,0.113
		h-0.591v-1.247h5.514v1.247h-0.591l-0.004-0.113c-0.003-0.352-0.039-0.563-0.11-0.631c-0.07-0.068-0.23-0.103-0.477-0.103h-0.959
		v4.36c0.018,0.397,0.049,0.621,0.091,0.671s0.233,0.088,0.572,0.112l0.071,0.004v0.368h-2.701v-0.368l0.071-0.004
		c0.323-0.021,0.515-0.067,0.574-0.137c0.059-0.07,0.089-0.284,0.089-0.642V39.511z"/>
	<path fill="#EB9022" d="M172.068,45.025h-2.509v-0.368l0.076-0.004c0.269-0.018,0.43-0.064,0.483-0.137
		c0.053-0.073,0.08-0.287,0.08-0.642v-3.612c0-0.355-0.026-0.568-0.078-0.64c-0.052-0.071-0.214-0.118-0.485-0.139l-0.076-0.004
		v-0.368h2.509v0.368l-0.072,0.004c-0.275,0.021-0.438,0.068-0.489,0.139c-0.052,0.072-0.078,0.285-0.078,0.64v3.612
		c0,0.355,0.026,0.569,0.08,0.642c0.053,0.073,0.216,0.119,0.487,0.137l0.072,0.004V45.025z"/>
	<path fill="#EB9022" d="M183.219,45.175c-0.929,0-1.661-0.277-2.196-0.832c-0.535-0.555-0.803-1.311-0.803-2.269
		c0-0.96,0.267-1.717,0.803-2.27c0.535-0.553,1.267-0.83,2.196-0.83c0.926,0,1.657,0.277,2.192,0.83
		c0.535,0.553,0.803,1.31,0.803,2.27c0,0.958-0.268,1.714-0.803,2.269C184.876,44.898,184.145,45.175,183.219,45.175z
		 M183.217,44.775c0.568,0,0.994-0.226,1.278-0.679c0.283-0.452,0.425-1.131,0.425-2.036c0-0.897-0.142-1.569-0.425-2.016
		c-0.283-0.447-0.709-0.671-1.278-0.671c-0.566,0-0.991,0.224-1.276,0.671c-0.285,0.447-0.427,1.119-0.427,2.016
		c0,0.905,0.142,1.584,0.427,2.036C182.226,44.549,182.651,44.775,183.217,44.775z"/>
	<path fill="#EB9022" d="M198.525,45.127l-3.261-4.499v3.253c0,0.355,0.026,0.569,0.08,0.642c0.053,0.073,0.216,0.119,0.487,0.137
		l0.072,0.004v0.368h-1.87v-0.368l0.076-0.004c0.269-0.018,0.43-0.064,0.483-0.137c0.053-0.073,0.08-0.287,0.08-0.642v-3.612
		c0-0.355-0.026-0.568-0.078-0.64c-0.052-0.071-0.214-0.118-0.485-0.139l-0.076-0.004v-0.368h1.489l3.242,4.474v-3.323
		c0-0.355-0.026-0.568-0.077-0.64c-0.051-0.071-0.214-0.118-0.486-0.139l-0.075-0.004v-0.368h1.87v0.368l-0.072,0.004
		c-0.271,0.021-0.433,0.068-0.486,0.139c-0.053,0.072-0.08,0.285-0.08,0.64v4.859H198.525z"/>
</g>
<radialGradient id="SVGID_14_" cx="30.6662" cy="48.8067" r="23.2507" gradientUnits="userSpaceOnUse">
	<stop  offset="0" style="stop-color:#87A8CD"/>
	<stop  offset="0.3569" style="stop-color:#578CBA"/>
	<stop  offset="1" style="stop-color:#045C98"/>
</radialGradient>
<path fill="url(#SVGID_14_)" d="M4.693,36.161l-4.118,1.104l0.871,3.249l16.244-4.352H4.693z M18.258,36.075
	c0.007,0.017,0.013,0.034,0.02,0.051L3.256,44.799l1.682,2.913l15.034-8.68c0.04,0.053,0.082,0.105,0.124,0.157L7.819,51.466
	l2.378,2.379l12.287-12.287c0.052,0.04,0.102,0.082,0.154,0.121l-8.687,15.047l2.912,1.682l8.698-15.064
	c0.059,0.024,0.118,0.046,0.178,0.07l-4.503,16.806l3.249,0.87l4.51-16.832c0.061,0.008,0.121,0.016,0.182,0.023v17.427h3.363
	V44.253c0.059-0.008,0.118-0.014,0.177-0.022l4.517,16.859l3.25-0.87L35.96,43.335c0.052-0.022,0.104-0.044,0.155-0.067l8.741,15.14
	l2.912-1.682L39.012,41.56c0.042-0.033,0.084-0.066,0.126-0.099l12.384,12.384l2.379-2.379l-12.4-12.4
	c0.031-0.041,0.064-0.08,0.095-0.121l15.186,8.767l1.682-2.913l-15.111-8.724H18.258z M57.027,36.178H44.033l16.242,4.352
	l0.871-3.248L57.027,36.178z"/>
<g>
	<rect x="0.402" y="35.997" fill="#045C98" width="61.08" height="0.444"/>
</g>
<g>
</g>
<g>
</g>
<g>
</g>
<g>
</g>
<g>
</g>
<g>
</g>
<g>
</g>
<g>
</g>
<g>
</g>
<g>
</g>
<g>
</g>
<g>
</g>
<g>
</g>
<g>
</g>
<g>
</g>
</svg>
